HIERARCHY
ROOT Hips
{
	OFFSET 0.000000 0.000000 0.000000 
	CHANNELS 6 Xposition Yposition Zposition Zrotation Yrotation Xrotation
	JOINT LeftUpLeg
	{
		OFFSET 1.363060 -1.794630 0.839290 
		CHANNELS 3 Zrotation Yrotation Xrotation
		JOINT LeftLeg
		{
			OFFSET 2.448110 -6.726130 0.000000 
			CHANNELS 3 Zrotation Yrotation Xrotation
			JOINT LeftFoot
			{
				OFFSET 2.562200 -7.039590 0.000000 
				CHANNELS 3 Zrotation Yrotation Xrotation
				JOINT LeftToeBase
				{
					OFFSET 0.157640 -0.433110 2.322550 
					CHANNELS 3 Zrotation Yrotation Xrotation
					End Site
					{
						OFFSET 0.000000 0.000000 0.000000 
					}
				}
			}
		}
	}
	JOINT RightUpLeg
	{
		OFFSET -1.305520 -1.794630 0.839290 
		CHANNELS 3 Zrotation Yrotation Xrotation
		JOINT RightLeg
		{
			OFFSET -2.542530 -6.985550 0.000000 
			CHANNELS 3 Zrotation Yrotation Xrotation
			JOINT RightFoot
			{
				OFFSET -2.568260 -7.056230 0.000000 
				CHANNELS 3 Zrotation Yrotation Xrotation
				JOINT RightToeBase
				{
					OFFSET -0.164730 -0.452590 2.363150 
					CHANNELS 3 Zrotation Yrotation Xrotation
					End Site
					{
						OFFSET 0.000000 0.000000 0.000000 
					}
				}
			}
		}
	}
	JOINT Spine
	{
		OFFSET 0.028270 2.035590 -0.193380 
		CHANNELS 3 Zrotation Yrotation Xrotation
		JOINT Spine1
		{
			OFFSET 0.056720 2.048850 -0.042750 
			CHANNELS 3 Zrotation Yrotation Xrotation
			JOINT Neck1
			{
				OFFSET -0.054170 1.746240 0.172020 
				CHANNELS 3 Zrotation Yrotation Xrotation
				JOINT Head
				{
					OFFSET 0.104070 1.761360 -0.123970 
					CHANNELS 3 Zrotation Yrotation Xrotation
					End Site
					{
						OFFSET 0.000000 0.000000 0.000000 
					}
				}
			}
			JOINT LeftArm
			{
				OFFSET 3.362410 1.200890 -0.311210 
				CHANNELS 3 Zrotation Yrotation Xrotation
				JOINT LeftForeArm
				{
					OFFSET 4.983000 -0.000000 -0.000000 
					CHANNELS 3 Zrotation Yrotation Xrotation
					JOINT LeftHand
					{
						OFFSET 3.483560 -0.000000 -0.000000 
						CHANNELS 3 Zrotation Yrotation Xrotation
						JOINT LeftHandIndex1
						{
							OFFSET 0.715260 -0.000000 -0.000000 
							CHANNELS 3 Zrotation Yrotation Xrotation
							End Site
							{
								OFFSET 0.000000 0.000000 0.000000 
							}
						}
					}
				}
			}
			JOINT RightArm
			{
				OFFSET -3.136600 1.374050 -0.404650 
				CHANNELS 3 Zrotation Yrotation Xrotation
				JOINT RightForeArm
				{
					OFFSET -5.241900 -0.000000 -0.000000 
					CHANNELS 3 Zrotation Yrotation Xrotation
					JOINT RightHand
					{
						OFFSET -3.444170 -0.000000 -0.000000 
						CHANNELS 3 Zrotation Yrotation Xrotation
						JOINT RightHandIndex1
						{
							OFFSET -0.622530 -0.000000 -0.000000 
							CHANNELS 3 Zrotation Yrotation Xrotation
							End Site
							{
								OFFSET 0.000000 0.000000 0.000000 
							}
						}
					}
				}
			}
		}
	}
}
MOTION
Frames: 7
Frame Time: 0.041667
9.511560 17.839344 49.095293 -177.240485 -16.971546 179.625419 -14.764111 -27.884743 -5.328629 -1.415631 9.309913 26.698402 3.254019 -5.047272 3.770594 2.302000 -9.468700 -27.272900 28.317137 10.660296 -3.178227 2.676657 -8.030933 25.542416 4.921182 -26.320352 -33.307477 -3.334600 -11.217900 33.018400 0.778637 4.412436 0.894860 -6.599978 1.438905 -12.756689 5.048699 12.851873 16.406020 -0.611400 6.964000 6.506600 -84.775093 10.984349 -6.754348 26.992029 -27.833047 -7.250064 1.457424 0.718831 14.005496 -7.125000 0.000000 0.000000 85.574740 -13.974957 43.460625 -22.186486 25.370523 -6.608796 1.256397 0.349634 11.999146 7.125000 0.000000 0.000000 
9.517349 17.841116 49.074146 -177.253501 -16.863558 179.686247 -14.821223 -28.223059 -5.109943 -1.424965 9.284709 26.643359 3.192838 -4.894126 3.765748 2.057100 -8.984100 -25.745600 28.312653 10.741567 -3.126614 2.690189 -8.007086 25.464491 4.939831 -26.302840 -33.206578 -3.381800 -11.288900 33.260400 0.771345 4.403922 0.757664 -6.455156 1.452168 -12.530834 4.839134 13.003046 16.390365 -0.727900 7.041800 6.473400 -83.963482 11.342958 -5.637027 27.398881 -28.222984 -7.465843 1.443780 0.717324 14.070931 -7.125000 0.000000 0.000000 85.589465 -14.309379 43.290131 -22.213268 25.395404 -6.603881 1.258710 0.341177 11.644462 7.125000 0.000000 0.000000 
9.519594 17.844188 49.052172 -177.362918 -16.716916 179.864721 -14.938310 -28.514067 -4.946645 -1.454636 9.245497 26.521692 3.002446 -4.371977 3.633198 2.060000 -8.990000 -25.764200 28.184363 10.904239 -3.176237 2.701411 -8.009128 25.430455 5.057481 -26.565198 -33.175589 -3.355200 -11.249000 33.124300 0.785696 4.389636 0.609537 -6.256667 1.476891 -12.248399 4.852291 13.252582 16.240434 -0.746300 7.166200 6.357200 -83.416660 11.743718 -4.738837 27.814426 -28.629068 -7.707564 1.418865 0.747319 14.362572 -7.125000 0.000000 0.000000 85.598962 -14.474830 43.163590 -22.128297 25.309957 -6.587516 1.259132 0.352795 11.408774 7.125000 0.000000 0.000000 
9.523138 17.850095 49.031261 -177.476148 -16.541110 -179.913234 -15.016764 -28.635664 -4.888874 -1.479196 9.218768 26.423471 2.857729 -3.956693 3.422352 2.176300 -9.224000 -26.498600 28.051952 11.109123 -3.226713 2.721363 -8.002290 25.371457 5.095722 -26.670299 -33.221787 -3.365900 -11.265100 33.179200 0.798730 4.397880 0.333714 -6.070517 1.504808 -12.079983 5.053020 13.486425 16.163200 -0.694800 7.297400 6.247500 -82.960701 12.350564 -3.548686 28.479840 -29.254936 -8.062731 1.367209 0.751169 14.036646 -7.125000 0.000000 0.000000 85.670135 -14.753190 42.944198 -22.084441 25.274798 -6.595591 1.255703 0.365775 11.290038 7.125000 0.000000 0.000000 
9.539442 17.855884 49.013421 -177.498866 -16.222843 -179.848983 -14.982842 -28.508376 -4.851393 -1.495496 9.201704 26.368347 2.726558 -3.557473 3.209611 2.333400 -9.528400 -27.462700 28.105845 11.314208 -3.149756 2.719704 -8.001571 25.347811 5.147302 -26.662223 -32.979212 -3.305700 -11.174200 32.869700 1.073967 4.420888 0.364354 -5.683862 1.561084 -11.857897 5.508060 13.718164 16.767516 -0.447300 7.460400 6.437000 -82.478784 12.727428 -2.051205 29.717079 -30.371668 -8.651705 1.309381 0.586113 11.782215 -7.125000 0.000000 0.000000 85.623558 -14.829464 42.601318 -22.048069 25.248530 -6.594003 1.254595 0.371927 11.393826 7.125000 0.000000 0.000000 
9.569804 17.863445 48.997236 -177.433008 -15.671318 -179.634817 -14.713146 -28.180502 -5.075129 -1.511029 9.191369 26.315776 2.589257 -3.124019 3.140040 2.548000 -9.924700 -28.733300 28.262757 11.702174 -3.172697 2.734807 -8.011863 25.301869 5.186760 -26.703855 -32.856907 -3.184700 -10.988100 32.239900 1.526411 4.495029 0.030414 -5.165792 1.641516 -11.726833 6.270395 13.990016 17.725733 -0.077700 7.681100 6.685200 -82.046034 13.389595 -0.819622 30.483778 -31.049554 -9.078104 1.265266 0.560404 10.854706 -7.125000 0.000000 0.000000 85.575328 -15.176021 42.454941 -22.037734 25.253235 -6.599015 1.253278 0.373533 11.714621 7.125000 0.000000 0.000000 
9.577838 17.855175 49.000780 -177.365317 -15.660144 -179.922115 -14.745311 -28.203478 -4.821123 -1.506845 9.185755 26.337564 2.576207 -3.098038 3.168262 2.649200 -10.104300 -29.315200 28.371362 11.531139 -2.970513 2.743489 -7.989055 25.329558 4.837268 -26.194862 -33.456720 -3.334200 -11.217300 33.016300 1.636050 4.483127 0.226882 -5.111939 1.637118 -11.832788 6.630541 14.185504 18.112638 0.125600 7.812700 6.828600 -81.449349 13.482438 0.489458 31.142237 -31.654986 -9.472165 1.241728 0.532876 10.018612 -7.125000 0.000000 0.000000 85.602466 -15.169437 42.154647 -22.057961 25.289306 -6.609428 1.250247 0.380763 11.638570 7.125000 0.000000 0.000000 
